<svg width="32" height="32" viewBox="0 0 32 32" fill="none" xmlns="http://www.w3.org/2000/svg">
<g id="healthicons:truck-driver">
<path id="Vector" fill-rule="evenodd" clip-rule="evenodd" d="M10 6.33333C10 6.04133 13.0107 4 16 4C18.9894 4 22 6.042 22 6.33333C22 7.37333 21.8894 7.98933 21.796 8.32467C21.734 8.54467 21.528 8.66667 21.2994 8.66667H10.7007C10.472 8.66667 10.266 8.54467 10.204 8.32467C10.1107 7.98933 10 7.37333 10 6.33333ZM15 6C14.8232 6 14.6536 6.07024 14.5286 6.19526C14.4036 6.32029 14.3334 6.48986 14.3334 6.66667C14.3334 6.84348 14.4036 7.01305 14.5286 7.13807C14.6536 7.2631 14.8232 7.33333 15 7.33333H17C17.1768 7.33333 17.3464 7.2631 17.4714 7.13807C17.5965 7.01305 17.6667 6.84348 17.6667 6.66667C17.6667 6.48986 17.5965 6.32029 17.4714 6.19526C17.3464 6.07024 17.1768 6 17 6H15ZM10.692 12.812C8.47202 12.1253 9.03202 10.8987 9.87869 10H22.3067C22.984 10.8653 23.3474 12.0327 21.3 12.7313C21.3837 13.474 21.3104 14.226 21.0847 14.9385C20.8591 15.651 20.4863 16.3082 19.9904 16.8673C19.4944 17.4265 18.8866 17.8751 18.2061 18.1843C17.5256 18.4934 16.7878 18.656 16.0404 18.6617C15.2931 18.6673 14.5529 18.5158 13.8678 18.217C13.1828 17.9182 12.5682 17.4787 12.0639 16.9271C11.5596 16.3755 11.1769 15.724 10.9406 15.015C10.7042 14.306 10.6196 13.5552 10.692 12.8113V12.812ZM15.8187 13.3333C17.58 13.3333 18.9454 13.24 19.992 13.0773C20.0264 13.6209 19.9495 14.1657 19.7659 14.6785C19.5823 15.1912 19.2959 15.6611 18.9243 16.0592C18.5527 16.4574 18.1037 16.7755 17.6048 16.994C17.1059 17.2125 16.5677 17.3268 16.0231 17.33C15.4784 17.3331 14.9389 17.225 14.4375 17.0122C13.9362 16.7995 13.4835 16.4866 13.1074 16.0927C12.7312 15.6989 12.4394 15.2324 12.2499 14.7218C12.0604 14.2112 11.9772 13.6672 12.0054 13.1233C12.9807 13.258 14.2307 13.3333 15.8187 13.3333ZM21.6114 23.0667C21.0083 22.1259 20.1783 21.3519 19.1977 20.816C18.2171 20.2801 17.1175 19.9995 16 20C14.8821 19.9993 13.782 20.2799 12.801 20.8161C11.82 21.3522 10.9897 22.1267 10.3867 23.068C10.1629 22.7233 9.81915 22.4739 9.42202 22.368L8.13402 22.0233C7.70712 21.9089 7.25223 21.9687 6.86941 22.1896C6.4866 22.4105 6.20721 22.7744 6.09269 23.2013L5.57536 25.1333C5.5187 25.3448 5.50424 25.5653 5.53281 25.7823C5.56139 25.9993 5.63243 26.2086 5.74188 26.3981C5.85133 26.5877 5.99705 26.7538 6.17071 26.8871C6.34438 27.0203 6.54259 27.118 6.75402 27.1747L8.04136 27.52C8.25789 27.5783 8.484 27.5922 8.70604 27.5608C8.92809 27.5294 9.14148 27.4534 9.33336 27.3373C9.33389 27.5141 9.40463 27.6835 9.53003 27.8082C9.65543 27.9328 9.82521 28.0025 10.002 28.002C10.1788 28.0015 10.3482 27.9307 10.4728 27.8053C10.5975 27.6799 10.6672 27.5101 10.6667 27.3333V26.6667C10.6667 26.4127 10.6847 26.1627 10.7187 25.918L14.188 26.848C14.3491 27.1927 14.6051 27.4843 14.926 27.6886C15.247 27.8929 15.6196 28.0014 16 28.0014C16.3805 28.0014 16.7531 27.8929 17.074 27.6886C17.395 27.4843 17.651 27.1927 17.812 26.848L21.2814 25.918C21.3154 26.1627 21.3334 26.4127 21.3334 26.6667V27.3333C21.3325 27.5101 21.4019 27.6801 21.5263 27.8057C21.6507 27.9314 21.8199 28.0025 21.9967 28.0033C22.1735 28.0042 22.3434 27.9348 22.4691 27.8104C22.5947 27.686 22.6658 27.5168 22.6667 27.34C23.04 27.564 23.5014 27.642 23.9554 27.52L25.2434 27.1753C25.4548 27.1187 25.653 27.021 25.8267 26.8877C26.0003 26.7545 26.1461 26.5884 26.2555 26.3988C26.365 26.2092 26.436 26 26.4646 25.783C26.4931 25.5659 26.4787 25.3454 26.422 25.134L25.904 23.202C25.7895 22.7751 25.5101 22.4112 25.1273 22.1903C24.7445 21.9694 24.2896 21.9095 23.8627 22.024L22.5747 22.3687C22.1785 22.4742 21.8353 22.7232 21.6114 23.0667ZM11.0687 24.6313C11.4288 23.7604 12.0131 23.0003 12.7621 22.4283C13.5112 21.8563 14.3983 21.4928 15.3334 21.3747V24.114C15.0346 24.22 14.7652 24.3953 14.5473 24.6256C14.3295 24.8558 14.1693 25.1345 14.08 25.4387L11.0687 24.632V24.6313ZM20.9314 24.6313C20.5712 23.7604 19.9869 23.0003 19.2378 22.4284C18.4888 21.8564 17.6017 21.4928 16.6667 21.3747V24.114C17.2694 24.3273 17.74 24.8207 17.92 25.4387L20.9314 24.632V24.6313ZM16 26.6667C16.1768 26.6667 16.3464 26.5964 16.4714 26.4714C16.5965 26.3464 16.6667 26.1768 16.6667 26C16.6667 25.8232 16.5965 25.6536 16.4714 25.5286C16.3464 25.4036 16.1768 25.3333 16 25.3333C15.8232 25.3333 15.6536 25.4036 15.5286 25.5286C15.4036 25.6536 15.3334 25.8232 15.3334 26C15.3334 26.1768 15.4036 26.3464 15.5286 26.4714C15.6536 26.5964 15.8232 26.6667 16 26.6667Z" fill="black"/>
</g>
</svg>
