<svg width="152" height="177" viewBox="0 0 152 177" fill="none" xmlns="http://www.w3.org/2000/svg">
<g id="OBJECTS" clip-path="url(#clip0_36_771)">
<path id="Vector" d="M78.4448 58.2C78.3348 56.56 79.0248 55.21 79.9448 53.92C81.0548 52.36 82.0748 50.74 83.1748 49.18C83.8248 48.25 84.5648 47.38 85.2748 46.5C85.4648 46.27 85.5048 46.06 85.2648 45.83C85.9448 45.52 86.5848 45.49 87.2348 45.7C88.4548 46.1 89.7848 46.33 90.8848 46.96C93.9548 48.72 96.7048 50.89 98.6248 53.95C99.6049 55.51 100.135 57.22 100.485 59.01C100.615 59.67 100.745 60.32 100.935 61.28C101.095 60.65 101.215 60.32 101.265 59.97C101.635 57.57 101.995 55.17 101.815 52.73C101.745 51.69 101.535 50.68 101.205 49.7C100.555 47.79 99.7748 45.93 98.7648 44.18C97.1749 41.39 95.4048 38.75 93.2348 36.35C91.7848 34.75 90.5748 32.92 89.3148 31.16C88.8748 30.54 88.2548 30.02 88.0648 29.23C88.7248 29.39 89.0048 29.99 89.3848 30.45C90.2648 31.53 91.0948 32.66 91.9748 33.74C92.7548 34.7 93.5548 35.65 94.3848 36.57C97.7548 40.3 100.225 44.56 101.875 49.3C102.565 51.28 102.785 53.33 102.575 55.41C102.305 58.08 101.985 60.75 101.175 63.33C100.995 63.91 100.905 64.55 100.935 65.16C101.065 68.06 100.735 70.93 100.445 73.8C100.265 75.6 100.145 77.4 99.9148 79.19C99.6848 81.03 99.3348 82.86 99.0648 84.7C98.8048 86.44 98.5548 88.17 98.3548 89.92C98.0848 92.23 97.9648 94.54 98.0348 96.88C98.1248 99.89 98.5148 102.84 99.1048 105.79C99.5948 108.22 99.9148 110.68 100.275 113.13C100.635 115.56 100.315 117.97 100.045 120.39C100.015 120.65 99.9548 120.9 99.9348 121.16C99.7348 123.08 99.2348 124.92 98.2548 126.59C97.7748 127.4 97.6548 128.23 97.7948 129.12C97.9848 130.29 98.2148 131.46 98.4748 132.62C98.6248 133.28 98.9348 133.88 99.5448 134.42C101.155 134.58 102.855 134.53 104.545 134.29C108.635 133.7 112.665 132.78 116.715 131.97C119.695 131.37 122.715 130.93 125.715 130.42C128.675 129.92 131.675 129.8 134.665 129.71C138.835 129.57 142.755 130.54 146.355 132.71C147.565 133.44 148.595 134.37 149.505 135.44C150.225 136.28 150.735 137.24 150.855 138.35C150.975 139.43 151.145 140.51 151.085 141.59C150.975 143.64 150.425 145.54 148.985 147.12C147.175 149.12 145.265 150.97 142.985 152.45C139.475 154.73 135.865 156.85 132.035 158.54C128.355 160.17 124.605 161.64 120.735 162.79C117.075 163.88 113.385 164.84 109.645 165.64C105.955 166.43 102.355 167.55 98.7648 168.69C98.4249 168.8 98.0648 168.83 97.7248 168.9L97.7548 168.93C97.5648 168.61 97.2748 168.56 96.9548 168.65C96.0148 168.92 95.0848 169.23 94.1348 169.48C92.2948 169.97 90.4348 170.4 88.5948 170.91C86.0048 171.62 83.4348 172.39 80.8448 173.09C79.1548 173.55 77.4548 174.01 75.7348 174.31C74.1648 174.58 72.5548 174.65 70.9648 174.78C67.0848 175.08 63.2248 174.65 59.3648 174.47C56.3248 174.33 53.2748 174.3 50.2348 174.29C48.7248 174.29 47.2648 174.61 45.8848 175.25C45.1848 175.58 44.4748 175.9 43.7448 176.16C43.3648 176.3 42.9348 176.36 42.5448 176.34C42.2648 176.33 41.8948 176.19 41.7448 175.98C41.4848 175.61 41.2348 175.38 40.7548 175.41C40.3548 175.43 40.1048 175.18 39.9148 174.83C39.7748 174.57 39.6248 174.24 39.3948 174.13C38.8148 173.85 38.7148 173.41 38.7548 172.86C38.7548 172.76 38.7348 172.66 38.7148 172.55C38.4348 172.36 38.0848 172.22 37.8648 171.96C37.6848 171.75 37.6848 171.39 37.5548 171.12C37.4548 170.91 37.3148 170.66 37.1148 170.55C36.1948 170.04 36.1948 169.23 36.4248 168.4C36.6648 167.54 37.1448 166.8 37.8748 166.26C38.2448 165.98 38.6548 165.75 39.0248 165.48C39.2748 165.3 39.4848 165.08 39.7148 164.88L39.7048 164.9C40.6548 164.69 41.6048 164.44 42.5648 164.27C43.3948 164.12 44.1548 163.87 44.8848 163.45C45.7848 162.93 46.7248 162.52 47.7548 162.33C48.0348 162.28 48.2948 162.09 48.4348 162.02C48.5148 161.27 48.5348 160.65 48.6448 160.05C49.2148 156.83 50.1248 153.72 51.6648 150.81C51.9448 150.27 52.1648 149.7 52.4448 149.09C50.3048 147.56 48.1448 146.25 45.7548 145.39C42.1048 144.08 38.3548 143.11 34.5148 142.53C31.7548 142.11 28.9648 141.94 26.1748 141.89C25.9048 141.89 25.6348 141.81 25.3648 141.77C27.0248 141.43 28.6648 141.53 30.3148 141.54C34.1248 141.55 37.8048 142.31 41.4848 143.17C45.8748 144.2 49.8548 146.08 53.5048 148.7C54.2148 149.21 54.9548 149.7 55.6648 150.22C58.1448 152.05 60.8948 153.34 63.8348 154.23C64.5648 154.45 65.3548 154.52 66.1148 154.63C66.8148 154.73 67.4448 154.51 68.0048 154.09C68.5048 153.72 68.9648 153.3 69.4648 152.94C71.9148 151.22 74.4949 150.9 77.1948 152.3C78.1049 152.78 78.9649 153.37 79.8048 153.97C81.5948 155.26 83.3248 156.63 85.4848 157.49C86.0348 157.23 86.6548 156.98 87.2448 156.66C89.3748 155.5 91.5048 154.33 93.6248 153.16C97.4648 151.03 101.285 148.86 105.395 147.27C105.975 147.05 106.535 146.79 107.095 146.51C109.495 145.29 111.965 144.25 114.485 143.3C118.325 141.85 122.285 140.91 126.395 140.71C127.135 140.67 127.805 140.56 128.455 140.19C129.215 139.76 130.035 139.46 131.005 139.48C130.525 140.07 129.665 139.91 129.335 140.53C129.685 140.91 130.305 140.39 130.665 140.99C129.825 141.09 129.045 141.1 128.305 141.28C127.505 141.47 126.735 141.55 125.935 141.35C125.745 141.3 125.525 141.38 125.325 141.4C121.625 141.9 117.995 142.75 114.555 144.2C110.085 146.09 105.665 148.1 101.235 150.07C100.575 150.36 99.9448 150.72 99.3048 151.07C95.8248 152.99 92.3348 154.91 88.8548 156.84C88.5948 156.98 88.3648 157.17 88.0748 157.37C88.2648 157.72 88.3948 157.99 88.5448 158.25C90.4048 161.36 91.5948 164.68 91.9148 168.3C91.9348 168.53 92.0548 168.76 92.1348 169.02C92.4248 168.98 92.6348 168.97 92.8248 168.92C95.3748 168.26 97.9248 167.6 100.475 166.94C100.925 166.83 101.385 166.67 101.835 166.69C102.265 166.71 102.635 166.6 103.035 166.49C104.675 166.04 106.315 165.57 107.975 165.18C112.045 164.21 116.125 163.3 120.125 162.08C124.085 160.87 127.945 159.41 131.715 157.71C135.635 155.95 139.325 153.77 142.925 151.43C145.155 149.97 147.015 148.12 148.725 146.1C149.235 145.5 149.585 144.82 149.815 144.06C150.335 142.34 150.335 140.59 150.085 138.84C149.925 137.75 149.465 136.77 148.725 135.93C147.865 134.95 146.885 134.13 145.765 133.46C142.285 131.38 138.495 130.55 134.485 130.68C128.735 130.87 123.065 131.66 117.435 132.83C113.285 133.69 109.165 134.65 104.955 135.21C103.475 135.41 101.975 135.47 100.475 135.49C98.9648 135.51 98.4948 135.12 97.9848 133.68C97.8848 133.39 97.8048 133.09 97.7548 132.78C97.6248 131.91 97.5148 131.04 97.3848 130.17C97.3548 130 97.2648 129.84 97.1648 129.56C96.2848 130.71 95.4948 131.72 94.7148 132.74C91.5148 136.97 87.2448 139.66 82.2848 141.32C79.3048 142.32 76.2548 142.7 73.1148 142.47C72.0348 142.39 70.9548 142.33 69.8648 142.27C67.0648 142.13 64.3348 141.59 61.6448 140.82C58.3648 139.88 55.2148 138.57 52.0448 137.33C49.3148 136.26 47.0148 134.5 44.9048 132.48C44.6948 132.28 44.4648 132.08 44.2148 131.86C43.7348 132.58 43.8248 133.32 43.6948 134.02C43.9248 134.24 44.1348 134.43 44.4048 134.68C43.8148 134.73 43.3548 134.59 42.8648 134.46C40.5748 133.84 38.2848 133.21 35.9548 132.72C34.1348 132.34 32.2748 132.19 30.4348 131.9C25.9948 131.19 21.5448 130.61 17.0648 130.17C16.3548 130.1 15.7748 130.2 15.2048 130.66C13.8048 131.79 12.1048 131.84 10.2148 132.04C10.8948 131.39 11.5948 131.34 12.2248 131.21C13.3648 130.97 14.3748 130.49 15.3148 129.83C15.8648 129.45 16.3948 129.04 16.9448 128.64C17.0948 128.53 17.2648 128.45 17.5348 128.28C17.4348 128.94 16.7248 129.1 16.8148 129.75C17.4048 129.77 17.9648 129.81 18.5248 129.82C19.1348 129.83 19.7548 129.82 20.3348 129.82C20.5148 129.62 20.6548 129.47 20.7948 129.31C22.9648 126.86 25.3348 124.66 28.1848 122.99C31.3048 121.16 34.3748 119.25 37.4448 117.33C38.8948 116.43 40.3248 115.49 41.6748 114.46C43.0248 113.44 44.2648 112.28 45.5448 111.18C46.9548 109.97 48.3748 108.77 49.7648 107.53C51.3848 106.09 53.0148 104.65 54.5548 103.13C56.2548 101.47 57.8548 99.71 59.5048 98C59.7148 97.78 59.9748 97.43 60.1948 97.44C60.8148 97.47 61.1048 97.04 61.4848 96.73C62.3248 96.04 63.1648 95.35 64.0148 94.68C65.7248 93.34 67.4448 92.02 69.1448 90.66C73.6748 87.05 78.1848 83.43 83.0648 80.29C84.1948 79.56 85.2648 78.74 86.3848 78C87.8048 77.06 89.2448 76.14 90.6848 75.23C90.8648 75.12 91.0748 74.86 91.3648 75.17C89.9548 76.9 87.9848 77.99 86.3148 79.45C86.4648 79.7 86.5548 79.89 86.6848 80.04C89.2548 83.02 92.4748 84.81 96.3748 85.37C96.8348 85.44 97.3048 85.44 97.7648 85.43C98.2348 85.42 98.5248 85.15 98.6048 84.68C98.6448 84.48 98.6448 84.27 98.6748 84.06C99.0048 80.77 99.2648 77.47 99.6648 74.19C100.025 71.26 100.285 68.34 100.235 65.39C100.195 63.01 100.095 60.65 99.5548 58.31C99.0548 56.14 98.0548 54.25 96.6248 52.57C95.6848 51.46 94.5348 50.58 93.4748 49.59C91.6848 47.92 89.5848 46.89 87.2548 46.26C86.9648 46.18 86.6648 46.15 86.4048 46.1C86.2448 46.27 86.1248 46.38 86.0348 46.5C83.7248 49.49 81.7648 52.72 79.7148 55.88C79.4948 56.21 79.3248 56.56 79.2848 57.01C79.2448 57.52 78.9048 57.95 78.4548 58.25L78.4448 58.2ZM85.8548 79.78C85.6648 79.85 85.5548 79.86 85.4748 79.92C82.2948 82.14 79.0748 84.29 75.9548 86.59C70.8848 90.34 65.9048 94.2 60.8548 97.97C59.6848 98.84 58.6448 99.82 57.6948 100.92C55.7348 103.19 53.6648 105.37 51.3448 107.27C48.8648 109.31 46.5448 111.51 44.1248 113.61C43.7148 113.96 43.4648 114.36 43.3148 114.88C42.7748 116.8 42.6348 118.74 42.8948 120.71C42.9648 121.27 43.0548 121.83 43.1148 122.4C43.2648 123.85 43.6048 125.25 44.2448 126.56C44.7648 127.63 45.3348 128.67 45.8748 129.73C46.0048 129.99 46.2848 130.22 46.0748 130.64C45.2948 130.28 44.8948 129.48 44.1448 128.91C44.1148 129.55 44.0948 130.05 44.0648 130.61C45.8848 132.53 47.9448 134.13 50.3748 135.25C51.1748 135.62 51.9948 135.93 52.7548 136.37C56.0548 138.29 59.6748 139.32 63.3048 140.33C65.9548 141.07 68.6948 141.28 71.4248 141.42C73.6448 141.53 75.8648 141.62 78.0748 141.29C82.4048 140.64 86.3048 138.96 89.7948 136.35C92.5248 134.31 94.5148 131.59 96.4648 128.86C96.5848 128.69 96.6748 128.5 96.7548 128.32C97.8148 126.07 98.7948 123.8 99.1248 121.31C99.2348 120.49 99.3648 119.67 99.4448 118.85C99.6448 116.74 99.7348 114.61 99.4448 112.51C99.0848 109.9 98.6448 107.3 98.0948 104.73C97.3748 101.31 97.2048 97.86 97.3648 94.4C97.4748 91.93 97.8948 89.48 98.1648 87.01C98.1948 86.73 98.1648 86.44 98.1648 86.11C96.4148 86.69 94.8948 86.04 93.3748 85.61C91.7648 85.16 90.3848 84.24 89.0248 83.28C87.6948 82.35 86.8048 81.01 85.8348 79.79L85.8548 79.78ZM41.6948 175.46C42.5248 175.8 43.0648 175.73 43.6048 175.49C44.2148 175.21 44.8348 174.95 45.4248 174.63C46.9148 173.83 48.5148 173.42 50.1848 173.4C54.2148 173.35 58.2548 173.29 62.2748 173.65C66.6148 174.04 70.9548 173.94 75.2748 173.44C76.2948 173.32 77.3148 173.1 78.3048 172.83C82.2449 171.76 86.1648 170.66 90.0948 169.56C90.3348 169.49 90.5748 169.43 90.7848 169.37C91.1448 166.43 89.1548 160.1 87.1448 157.67C86.3148 158.03 85.4548 158.39 84.6048 158.76C82.5648 159.64 80.4848 160.4 78.3148 160.92C76.6248 161.33 75.0448 161.25 73.5148 160.39C73.2448 160.24 72.9648 160.11 72.6848 159.96C71.4048 159.28 70.0448 159.09 68.6248 159.26C66.7048 159.49 64.8548 159.92 63.3248 161.23C63.2048 161.33 63.0748 161.41 62.9448 161.5C61.6948 162.41 60.2748 162.84 58.7548 162.98C56.9448 163.14 55.1348 163.14 53.3448 162.85C51.3148 162.52 49.3448 162.78 47.3748 163.23C46.8748 163.35 46.3548 163.49 45.9248 163.75C44.6148 164.52 43.2048 164.95 41.7048 165.2C40.4648 165.4 39.3448 165.96 38.3548 166.75C37.4648 167.45 36.8548 168.31 37.2848 169.59C38.6548 170.08 39.9048 169.23 41.3448 169.26C40.6248 169.92 39.8048 170.08 39.0448 170.37C38.8048 170.46 38.5448 170.51 38.3348 170.64C38.2348 170.7 38.1448 170.91 38.1648 171.03C38.2048 171.21 38.3248 171.47 38.4548 171.51C38.7448 171.59 39.0648 171.59 39.3648 171.53C40.0048 171.4 40.6448 171.21 41.4748 170.99C41.0348 171.61 40.5248 171.72 40.0948 171.96C39.8248 172.11 39.5148 172.21 39.2948 172.4C39.1748 172.51 39.0948 172.81 39.1548 172.95C39.2548 173.15 39.4748 173.37 39.6848 173.42C39.9148 173.47 40.1948 173.37 40.4348 173.29C41.0048 173.1 41.5748 172.89 42.1948 172.67C42.1448 172.83 42.1448 172.95 42.0948 172.99C41.6248 173.3 41.1448 173.6 40.6548 173.89C40.4148 174.03 40.2048 174.22 40.3648 174.49C40.4448 174.63 40.7148 174.75 40.8748 174.73C41.3348 174.66 41.7748 174.52 42.2248 174.4C42.4448 174.34 42.6748 174.28 43.1648 174.14C42.5748 174.67 42.2048 175 41.6748 175.47L41.6948 175.46ZM49.4348 161.99C50.9348 161.65 52.3248 161.82 53.7048 161.99C54.3148 162.06 54.9348 162.13 55.5548 162.17C58.4548 162.37 61.2248 162.11 63.5748 160.1C64.4948 159.31 65.6348 158.96 66.8048 158.67C69.3648 158.02 71.8048 158.11 74.1148 159.56C75.3748 160.35 76.7548 160.37 78.1548 160.04C80.2248 159.56 82.2148 158.86 84.1448 157.97C84.2048 157.94 84.2348 157.83 84.3648 157.63C82.5648 157.31 81.3648 156.05 79.9748 155.1C79.3748 154.69 78.8048 154.26 78.1948 153.86C77.7648 153.57 77.3248 153.3 76.8648 153.06C74.4648 151.79 72.1948 152.1 70.0348 153.64C69.5348 154 69.0648 154.41 68.5648 154.77C67.8748 155.27 67.0848 155.48 66.2248 155.42C65.2448 155.35 64.2848 155.23 63.3348 154.92C60.3648 153.97 57.5948 152.62 55.0648 150.79C54.4048 150.31 53.7648 149.79 53.0448 149.48C52.9348 149.55 52.8748 149.56 52.8548 149.6C51.2148 152.96 50.0448 156.47 49.3948 160.15C49.2948 160.69 49.1648 161.26 49.4348 161.99ZM42.6348 115.05C42.3448 115.19 42.1548 115.24 42.0048 115.35C40.5448 116.32 39.1148 117.34 37.6348 118.27C34.9248 119.97 32.2248 121.69 29.4448 123.27C26.5848 124.89 24.1548 127.03 21.7648 129.23C21.5948 129.39 21.3448 129.56 21.5748 129.93C22.8048 130.07 24.0748 130.18 25.3448 130.35C28.8748 130.81 32.3948 131.28 35.9248 131.77C37.8748 132.04 39.7248 132.7 41.5748 133.35C41.9748 133.49 42.3848 133.8 42.8348 133.67C43.0148 132.16 43.1948 130.73 43.3548 129.3C43.4848 128.22 43.4648 127.19 43.0648 126.12C42.0848 123.53 41.9448 120.79 42.1248 118.05C42.1848 117.09 42.4448 116.14 42.6348 115.05Z" fill="#3058A6"/>
<path id="Vector_2" d="M83.4741 45.36C83.2241 45.68 83.0241 46.06 82.7141 46.31C81.7041 47.14 80.9341 48.16 80.1941 49.22C78.7041 51.33 77.4841 53.6 76.3241 55.9C74.4941 59.53 72.6841 63.18 70.8641 66.82C70.8041 66.94 70.8341 67.1 70.7941 67.52C71.3141 66.83 71.6741 66.35 72.0441 65.88C73.8241 63.61 75.6141 61.35 77.4041 59.08C77.6641 58.76 77.9141 58.42 78.3441 58.33C78.0741 58.77 77.8241 59.22 77.5241 59.63C75.6741 62.19 73.8641 64.76 71.9641 67.28C69.4341 70.62 66.7241 73.81 63.6341 76.66C61.7341 78.41 59.8941 80.23 58.0741 82.06C55.9641 84.19 53.7141 86.18 51.4441 88.13C49.3341 89.95 47.1941 91.74 45.0841 93.58C41.6541 96.57 38.4241 99.77 35.4741 103.24C31.5841 107.81 27.5041 112.2 23.2641 116.44C21.4741 118.23 19.5641 119.89 17.6841 121.59C16.2641 122.88 14.7041 123.99 13.0441 124.95C12.7341 125.13 12.4441 125.35 12.1541 125.56C10.7741 126.56 9.38408 127.55 8.02408 128.57C7.03408 129.31 6.05408 130.07 5.11408 130.88C3.82408 131.98 2.99408 133.4 2.36408 134.95C1.99408 135.87 1.74408 136.81 1.78408 137.81C1.78408 137.99 1.73408 138.24 2.14408 138.32C3.37408 137.01 3.49408 135.1 4.49408 133.46C4.59408 133.88 4.66408 134.16 4.76408 134.54C5.91408 133.74 6.88408 132.73 8.19408 132.26C8.12408 132.47 8.00408 132.61 7.85408 132.73C6.91408 133.53 5.96408 134.34 5.01408 135.13C4.65408 135.43 4.26408 135.68 4.13408 136.17C3.81408 137.4 3.10408 138.41 2.38408 139.35C2.38408 139.98 2.38408 140.55 2.38408 141.12C2.40408 142.9 2.78408 144.61 3.49408 146.23C4.61408 148.78 6.19408 150.96 8.45408 152.66C11.4341 154.91 14.6241 156.82 17.7641 158.8C18.3441 159.16 18.9741 159.36 19.6441 159.46C20.2541 159.55 20.8541 159.7 21.4541 159.85C24.4541 160.61 27.4141 161.52 30.4641 162.13C32.9441 162.63 35.4041 163.24 37.8641 163.83C38.5441 163.99 39.2741 164.11 39.6841 164.81L39.6941 164.79C35.6541 163.98 31.6041 163.2 27.5641 162.34C25.6941 161.94 23.8441 161.46 22.0141 160.91C19.7341 160.23 17.5341 159.36 15.4641 158.16C12.9141 156.67 10.4241 155.13 8.03408 153.39C5.26408 151.36 3.44408 148.66 2.27408 145.5C1.69408 143.94 1.41408 142.31 1.51408 140.63C1.55408 140.06 1.54408 139.54 1.18408 139.01C0.744083 138.38 0.844083 137.61 0.974083 136.9C1.43408 134.39 2.53408 132.18 4.41408 130.45C5.43408 129.51 6.59408 128.71 7.73408 127.91C9.25408 126.84 10.8541 125.89 12.3541 124.78C13.8041 123.7 15.1641 122.5 16.5541 121.35C20.1041 118.41 23.3741 115.19 26.5041 111.81C30.1641 107.87 33.7041 103.83 37.2741 99.82C39.0241 97.86 41.0041 96.1 42.8941 94.26C43.7841 93.4 44.7141 92.59 45.6541 91.72C45.4241 91.24 45.2041 90.84 45.0241 90.42C44.1441 88.41 43.4641 86.36 43.7441 84.12C43.9541 82.43 44.2741 80.75 44.8741 79.14C45.5541 77.29 46.3941 75.52 47.4341 73.85C47.7041 73.41 47.9541 72.97 48.2441 72.49C47.9241 71.71 47.5741 70.96 47.2941 70.19C46.6741 68.49 46.0241 66.8 45.4941 65.08C44.9941 63.47 45.0941 61.82 45.5241 60.19C46.4541 56.67 48.4741 54.09 51.8741 52.67C52.1141 52.57 52.3341 52.44 52.6041 52.31C52.6941 51.45 52.7441 50.58 52.8841 49.72C53.1841 47.81 53.9841 46.07 54.7841 44.33C55.3041 43.21 55.7641 42.06 56.2341 40.91C56.3441 40.63 56.4041 40.32 56.4541 40.02C56.4741 39.88 56.4141 39.72 56.3841 39.53C55.7841 39.1 55.0541 39.02 54.3741 38.82C52.9841 38.42 51.5841 38.07 50.2241 37.59C49.3541 37.29 48.5241 36.85 47.7241 36.38C46.6541 35.76 46.1341 34.79 46.2041 33.53C46.2341 33.01 46.1741 32.48 46.3041 31.99C46.6741 30.58 46.1541 29.24 46.0941 27.87C45.2041 26.85 45.8641 25.82 46.0941 24.8C46.1141 24.7 46.1741 24.61 46.2341 24.53C46.2641 24.49 46.3241 24.48 46.3941 24.44C46.8241 25.24 46.1141 26.01 46.3541 26.92C46.7041 27.18 47.1441 27.5 47.6141 27.86C47.2541 27.94 46.9641 28.01 46.6941 28.08C46.6541 28.22 46.5741 28.34 46.6041 28.4C47.0941 29.42 47.1441 30.47 46.9541 31.57C46.8441 32.23 46.8741 32.91 46.8341 33.58C46.7841 34.5 47.1741 35.21 47.9541 35.65C48.8041 36.13 49.6841 36.59 50.6041 36.91C51.7741 37.32 52.9841 37.57 54.1741 37.92C55.1641 38.21 56.1741 38.45 57.1241 38.84C58.9641 39.6 60.3041 40.92 61.1141 42.76C61.9341 44.62 62.3941 46.57 62.6241 48.58C62.6341 48.67 62.5741 48.78 62.5041 49.04C62.3141 48.38 62.1541 47.86 62.0041 47.33C61.5041 45.59 60.9241 43.88 59.9441 42.33C59.3541 41.39 58.6141 40.62 57.6541 40.07C57.4841 39.97 57.2941 39.92 57.0241 39.82C56.8841 40.39 56.8041 40.89 56.6441 41.36C56.2341 42.53 55.8241 43.7 55.3241 44.83C54.4941 46.73 53.8641 48.69 53.4041 50.71C53.3141 51.1 53.2641 51.5 53.1741 52.05C54.7841 51.76 56.0741 50.98 57.4841 50.59C58.8641 50.2 60.2741 49.85 61.4741 49.06C61.8041 49.31 61.5541 49.46 61.4541 49.58C61.3241 49.73 61.1541 49.91 60.9741 49.96C59.8041 50.31 59.4941 51.28 59.2141 52.29C58.6041 54.44 57.6341 56.44 56.4441 58.32C56.2841 58.57 56.0441 58.75 55.8341 58.97L55.8641 59C55.7641 58.43 56.1341 58.03 56.3541 57.57C57.2941 55.62 58.2841 53.7 59.0141 51.65C59.0941 51.44 59.3341 51.22 58.9941 50.94C58.8341 50.98 58.6341 51 58.4441 51.07C56.3341 51.89 54.2041 52.67 52.1141 53.54C47.1041 55.63 45.0041 61.41 46.5041 65.55C47.1541 67.34 47.6841 69.18 48.2841 70.98C48.3541 71.2 48.3441 71.5 48.7041 71.59C48.8041 71.51 48.9441 71.43 49.0141 71.32C50.7841 68.72 52.4641 66.06 53.6341 63.12C53.9241 62.4 54.2441 61.7 54.5641 61C54.6441 60.83 54.8041 60.7 54.9341 60.55L54.8941 60.53C54.8641 60.78 54.8841 61.05 54.8041 61.28C53.7741 64.29 52.6141 67.24 50.8641 69.93C50.3941 70.66 49.9641 71.42 49.4941 72.16C49.2141 72.6 49.0241 73.06 48.9941 73.58L49.0241 73.55C48.6441 73.65 48.4241 73.93 48.2341 74.24C46.4841 77.15 45.1841 80.23 44.7441 83.62C44.5941 84.8 44.5741 85.99 44.9041 87.16C45.1641 88.1 45.3541 89.07 45.6041 90.02C45.7041 90.41 45.8741 90.78 46.0241 91.16C47.8341 90.22 57.0841 82 59.0441 79.6C58.9141 79.54 58.7941 79.44 58.6841 79.44C57.2141 79.42 56.2941 78.56 55.6241 77.38C54.5541 75.51 54.2641 73.49 54.6841 71.38C55.1041 69.25 55.6241 67.14 56.4241 65.11C57.6841 61.89 58.9641 58.67 60.1941 55.43C60.8141 53.8 61.3541 52.13 61.9241 50.5C62.1641 50.83 62.0041 51.27 61.9141 51.64C61.5841 52.94 61.2341 54.24 60.7841 55.5C59.6341 58.76 58.4341 62.01 57.2441 65.26C56.5341 67.21 56.0141 69.21 55.6341 71.24C55.2841 73.11 55.3541 74.95 56.3741 76.65C56.5641 76.96 56.7541 77.27 56.9941 77.53C57.8241 78.42 59.0141 78.66 60.1041 78.13C60.6541 77.86 61.2241 77.56 61.6741 77.15C63.9641 75.06 66.2141 72.93 68.2041 70.53C68.6341 70.01 69.1041 69.53 69.2041 68.82C69.2141 68.72 69.2841 68.63 69.3341 68.54C71.4541 64.11 73.5741 59.69 75.7041 55.27C76.8341 52.94 78.0541 50.67 79.5841 48.57C80.0441 47.94 80.5141 47.33 81.0141 46.74C81.6641 45.97 82.4641 45.42 83.4941 45.3L83.4741 45.36Z" fill="#3058A6"/>
<path id="Vector_3" d="M88.1242 29.27C87.9342 29.1 87.7142 28.97 87.5742 28.77C86.4242 27.09 85.5842 25.27 85.2842 23.24C84.8742 20.53 84.4942 17.82 84.0642 15.12C83.6742 12.7 82.8442 10.43 81.5642 8.33C80.8342 7.12 79.9142 6.09 78.7942 5.23C75.9242 3 72.7342 1.48 69.1542 0.859999C67.6942 0.609999 66.1742 0.659999 64.6742 0.599999C64.0542 0.579999 63.4342 0.619999 62.8142 0.629999C60.2842 0.689999 58.1142 1.68 56.1642 3.23C55.6442 3.65 55.1042 4.04 54.5742 4.45C54.6042 4.3 54.5842 4.11 54.6742 4.02C56.7742 1.71 59.2942 0.189999 62.4542 0.0499994C64.3542 -0.0400006 66.2742 -5.66244e-07 68.1742 0.0799994C69.7342 0.139999 71.2242 0.619999 72.6842 1.12C74.6442 1.79 76.4542 2.78 78.1842 3.93C80.5842 5.53 82.2542 7.7 83.4242 10.3C84.4742 12.63 84.9642 15.11 85.3042 17.62C85.5342 19.31 85.7442 21 86.0242 22.68C86.3842 24.88 87.0242 27 88.0942 28.97C88.1342 29.05 88.1242 29.17 88.1342 29.27H88.1242Z" fill="#3058A6"/>
<path id="Vector_4" d="M66.9841 19.3C67.2341 19.38 67.4841 19.42 67.7041 19.22C68.0141 18.94 68.3141 18.66 68.6441 18.41C69.1441 18.03 69.6941 17.76 70.3241 17.67C72.0641 17.44 73.3141 18.4 73.3341 20.15C73.3541 21.17 73.1941 22.21 73.0041 23.22C72.7941 24.34 72.3341 25.39 71.6441 26.32C71.4641 26.56 71.2841 26.87 71.2841 27.15C71.2641 29.63 71.2041 32.12 72.0341 34.51C72.5541 36.03 73.2041 37.48 74.0741 38.85C75.5841 41.22 77.6341 42.82 80.3741 43.54C81.2741 43.77 82.1441 44.11 83.0141 44.43C83.4841 44.61 83.9341 44.87 84.7041 45.24C84.0641 45.32 83.7441 45.35 83.4341 45.39C83.2141 45.28 83.0141 45.11 82.7841 45.06C81.8841 44.84 80.9741 44.67 80.0741 44.44C77.2941 43.72 75.1841 42.08 73.6441 39.68C72.2641 37.53 71.2841 35.21 70.9041 32.68C70.7941 31.97 70.7641 31.24 70.7441 30.53C70.7141 29.61 70.7441 28.68 70.7441 27.73C70.1741 27.56 69.8841 28.02 69.4941 28.2C68.5941 28.62 67.7141 28.73 66.8241 28.24C66.6241 28.13 66.4941 27.89 66.2441 27.63C68.7841 27.91 70.5341 26.96 71.6241 24.78C72.3341 23.37 72.6041 21.85 72.5741 20.28C72.5541 19.01 71.7241 18.33 70.4441 18.4C69.6341 18.45 68.9841 18.86 68.3441 19.3C67.8741 19.62 67.4241 19.72 66.9741 19.3H66.9841Z" fill="#3058A6"/>
<path id="Vector_5" d="M54.6248 4.39C54.4248 4.81 54.7948 5.06 54.9248 5.39C54.7348 5.45 54.4948 5.45 54.3848 5.57C54.1448 5.83 53.9348 6.14 53.7648 6.46C52.3348 9.05 51.0648 11.72 50.6748 14.68C50.3548 17.11 49.0448 18.86 47.3548 20.44C46.9448 20.83 46.4848 21.17 46.0248 21.51C45.1948 22.12 45.1548 22.76 45.7948 23.46C45.8948 23.57 45.9748 23.7 46.1748 23.96C45.8248 23.91 45.5548 23.95 45.4048 23.83C44.5548 23.13 44.4548 22.23 45.1448 21.39C45.4048 21.08 45.7748 20.85 46.0648 20.57C46.8748 19.77 47.6848 18.99 48.4548 18.15C49.1348 17.41 49.5148 16.52 49.6848 15.52C49.8248 14.71 49.9848 13.9 50.1748 13.09C50.8948 10.14 52.1848 7.46 54.0848 5.09C54.2748 4.86 54.4448 4.62 54.6148 4.38L54.6248 4.39Z" fill="#3058A6"/>
<path id="Vector_6" d="M55.8245 6.11C56.7745 7.39 57.7345 8.66 58.6645 9.95C59.6845 11.37 60.6745 12.81 61.7045 14.22C62.7945 15.73 64.1045 17.04 65.5745 18.18C65.8845 18.42 66.1345 18.75 66.4145 19.04C66.2145 18.99 65.9945 18.99 65.8345 18.9C64.4545 18.08 63.1445 17.18 62.1645 15.88C61.0545 14.4 59.9345 12.93 58.8845 11.4C57.9245 10 57.0645 8.54 56.1545 7.11C55.9645 6.8 55.7445 6.51 55.8245 6.12V6.11Z" fill="#3058A6"/>
<path id="Vector_7" d="M68.2048 21.58C68.4448 22.29 68.8648 23.05 68.3148 23.89C67.8948 23.68 68.2548 23.36 68.1548 23.12C68.0648 22.89 68.1048 22.6 68.0048 22.38C67.8848 22.11 67.6748 21.89 67.4648 21.59C68.0448 20.72 68.8548 20.06 70.0048 19.97C70.4148 19.94 70.9548 19.82 71.1448 20.45C69.7515 20.59 68.7748 20.9733 68.2148 21.6L68.2048 21.58Z" fill="#3058A6"/>
<path id="Vector_8" d="M57.3746 14.49C55.6546 14.24 53.9946 14.2 52.2246 14.8C53.0046 13.9 53.4146 13.72 54.5746 13.68C56.1046 13.62 56.6246 13.77 57.3846 14.49H57.3746Z" fill="#3058A6"/>
<path id="Vector_9" d="M55.5742 18.68C55.1042 18.86 54.6542 19.09 54.1742 19.19C53.3342 19.37 52.9142 19.12 52.2742 18.22C52.1442 18.03 51.9942 17.86 51.7842 17.58C52.6842 17.39 53.0942 18.16 53.7542 18.21C54.3642 18.26 54.9642 18.35 55.5742 18.42C55.5742 18.5 55.5742 18.59 55.5842 18.67L55.5742 18.68Z" fill="#3058A6"/>
<path id="Vector_10" d="M55.8248 59.01C55.7348 59.66 55.3748 60.16 54.8848 60.57L54.9248 60.59C54.8448 59.84 55.1848 59.34 55.8548 59.04L55.8248 59.01Z" fill="#3058A6"/>
<path id="Vector_11" d="M49.4141 23.88C49.2941 23.51 49.1641 23.15 48.9941 22.64C49.3541 22.9467 49.4941 23.36 49.4141 23.88Z" fill="#3058A6"/>
<path id="Vector_12" d="M47.5549 23.77C47.5549 23.77 47.5249 23.86 47.5049 23.87C47.3749 23.89 47.2349 23.91 47.1049 23.91C47.0849 23.91 47.0649 23.78 47.0449 23.72C47.1749 23.71 47.3149 23.69 47.4449 23.69C47.4849 23.69 47.5149 23.75 47.5549 23.78V23.77Z" fill="#3058A6"/>
<path id="Vector_13" d="M97.7346 168.86C97.6846 168.93 97.6446 169 97.5846 169.06C97.5746 169.07 97.5146 169.03 97.4746 169.02C97.5746 168.98 97.6646 168.93 97.7646 168.89L97.7346 168.86Z" fill="#3058A6"/>
<path id="Vector_14" d="M48.9844 73.63C49.0644 73.67 49.1344 73.71 49.2144 73.75C49.1744 73.79 49.1244 73.83 49.0844 73.88C49.0644 73.79 49.0344 73.7 49.0144 73.61L48.9844 73.64V73.63Z" fill="#3058A6"/>
<path id="Vector_15" d="M66.3545 18.98C66.5845 19.1 66.8045 19.21 67.0345 19.33C66.7845 19.27 66.4545 19.35 66.3545 18.98Z" fill="#3058A6"/>
</g>
<defs>
<clipPath id="clip0_36_771">
<rect width="150.21" height="176.29" fill="white" transform="translate(0.894531)"/>
</clipPath>
</defs>
</svg>
