<svg width="21" height="20" viewBox="0 0 21 20" fill="none" xmlns="http://www.w3.org/2000/svg">
<path fill-rule="evenodd" clip-rule="evenodd" d="M2.5 10C2.5 9.58579 2.83579 9.25 3.25 9.25L15.8401 9.25L13.7397 7.2996C13.4361 7.01775 13.4186 6.5432 13.7004 6.23966C13.9823 5.93613 14.4568 5.91856 14.7603 6.20041L18.2603 9.45041C18.4132 9.59232 18.5 9.79145 18.5 10C18.5 10.2086 18.4132 10.4077 18.2603 10.5496L14.7603 13.7996C14.4568 14.0815 13.9823 14.0639 13.7004 13.7603C13.4186 13.4568 13.4361 12.9823 13.7397 12.7004L15.8401 10.75L3.25 10.75C2.83579 10.75 2.5 10.4142 2.5 10Z" fill="#0F172A"/>
</svg>
