<svg width="681" height="1024" viewBox="0 0 681 1024" fill="none" xmlns="http://www.w3.org/2000/svg">
<g clip-path="url(#clip0_6_408)">
<path d="M190.49 431.768C154.021 431.768 66.3584 534.213 32.8841 585.436C-0.59014 636.659 -17.9565 727.852 32.8841 790.327C83.7247 852.801 207.126 867.148 228.469 790.327C249.812 713.505 222.781 603.936 221.347 542.771C219.912 481.581 220.818 431.793 190.49 431.793V431.768Z" fill="#DB3E4D"/>
</g>
<path d="M374.318 669.33C357.908 671.302 347.71 655.764 347.212 641.2C346.738 626.66 386.887 596.106 402.373 565.077C417.859 534.048 433.677 511.572 432.871 507.391C432.064 503.209 413.993 483.157 406.737 488.004C399.48 492.851 516.11 566.051 537.88 578.667C559.651 591.283 624.511 583.989 612.891 576.244C601.27 568.498 508.853 597.579 464.317 600.976C419.804 604.374 381.575 609.696 364.619 618.439C347.687 627.158 328.809 656.097 324.138 668.38C319.466 680.663 329.616 709.435 332.841 721.552C336.066 733.669 330.256 758.877 343.323 758.71C356.39 758.544 351.552 728.489 351.22 720.887C350.888 713.284 354.611 703.59 350.746 702.474C346.88 701.333 350.912 718.629 359.141 723.809C367.37 728.988 389.781 744.17 393.338 747.401C396.895 750.632 400.595 758.877 402.041 752.248C403.488 745.619 397.203 723.476 390.753 716.539C384.302 709.601 380.271 701.832 380.271 692.471C380.271 683.11 379.133 674.201 380.271 669.9C381.409 665.576 423.669 666.455 476.886 669.378C530.126 672.276 587.207 662.583 630.772 657.261C674.336 651.939 679.648 638.349 679.174 611.193C678.7 584.036 629.823 530.722 563.042 471.088C496.261 411.453 461.898 359.588 440.602 347.471C419.306 335.354 398.01 328.084 388.334 310.621C378.658 293.159 382.049 238.87 382.049 238.87C387.86 224.805 405.266 259.706 376.737 261.179C348.185 262.629 271.728 282.515 272.7 270.873C273.672 259.231 273.672 211.714 273.672 163.721C273.672 115.729 280.336 98.7412 287.711 102.638C295.941 107.009 288.684 120.575 241.728 120.575C226.717 120.575 210.756 114.755 206.891 113.78C203.025 112.806 212.203 61.4163 237.388 33.7849C262.55 6.15351 359.829 -27.7977 435.788 48.3252C511.77 124.448 505.96 241.769 489.976 252.911C474.016 264.054 403.345 259.706 403.345 259.706" stroke="white" stroke-width="1.5" stroke-linecap="round" stroke-linejoin="round"/>
<path d="M212.962 115.539C212.962 115.539 208.575 126.824 210.258 132.17C211.942 137.515 217.752 144.049 216.543 150.107C215.333 156.166 189.84 180.542 188.464 184.035C186.52 189.048 195.247 194.227 200.796 195.914C206.369 197.601 205.373 199.549 205.99 202.709C206.606 205.869 202.717 211.357 202.527 215.729C202.314 220.101 207.365 226.135 217.207 228.559C227.049 230.982 231.199 231.719 230.558 229.295C229.918 226.872 207.816 213.448 203.95 214.422C200.085 215.396 202.172 223.142 210.733 226.23L219.294 229.295C219.294 229.295 208.172 232.194 208.172 237.041C208.172 241.887 214.29 243.836 221.879 239.464C229.468 235.092 232.859 232.93 231.554 231.719C228.4 228.773 216.401 240.438 218.322 243.36C220.266 246.259 220.574 250.797 220.574 255.976C220.574 261.156 222.519 274.888 236.392 274.888C250.266 274.888 273.008 265.028 273.008 265.028" stroke="white" stroke-width="1.5" stroke-linecap="round" stroke-linejoin="round"/>
<path d="M282.376 274.864C282.376 274.864 294.968 316.062 289.798 321.883C284.629 327.704 254.321 330.602 238.503 339.987C222.685 349.372 215.286 378.761 204.638 388.479C193.99 398.172 149.785 434.048 139.137 469.923C128.489 505.799 145.92 524.545 159.793 536.828C173.666 549.111 160.765 567.524 164.631 570.446C168.496 573.345 179.476 570.779 176.892 574.961C174.307 579.142 131.715 597.579 129.794 614.067C127.849 630.556 141.414 652.2 142.054 655.122C142.695 658.021 109.873 650.68 105.913 618.914C103.02 595.654 110.751 584.987 124.292 570.755C137.833 556.524 150.094 531.648 150.094 531.648" stroke="white" stroke-width="1.5" stroke-linecap="round" stroke-linejoin="round"/>
<path d="M162.378 886.651C157.682 904.304 185.903 1022.22 194.298 1022.22C202.693 1022.22 229.349 884.228 285.767 847.758C345.149 809.364 394.642 813.332 440.127 859.875" stroke="white" stroke-width="1.5" stroke-linecap="round" stroke-linejoin="round"/>
<path d="M176.868 574.961C176.868 574.961 220.432 575.293 219.46 583.371C218.487 591.449 212.369 596.296 202.361 596.937C192.354 597.579 180.425 597.911 182.678 593.706C184.931 589.501 196.883 603.091 213.982 612.784C231.08 622.478 260.439 630.247 265.917 634.761C271.396 639.275 270.755 646.07 254.629 646.07C254.629 646.07 276.233 649.492 276.897 655.693C277.538 661.894 277.229 666.099 253.68 664.151C230.132 662.203 221.096 659.945 221.096 659.945C221.096 659.945 255.625 666.075 260.463 668.665C265.301 671.255 267.245 683.538 251.76 683.847C236.274 684.179 213.697 678.358 213.697 678.358C213.697 678.358 232.574 680.829 232.456 687.601C232.337 694.372 227.001 696.439 206.085 692.091C185.168 687.719 164.583 678.263 156.615 672.466C148.623 666.645 143.785 659.375 143.785 659.375C143.785 659.375 114.023 679.665 97.897 738.492C81.7709 797.318 99.8417 843.862 128.869 867.787C157.896 891.712 179.026 883.966 200.938 915.447C215.76 936.734 212.488 936.473 221.072 951.655" stroke="white" stroke-width="1.5" stroke-linecap="round" stroke-linejoin="round"/>
<path d="M399.124 754.125C399.124 754.125 425.258 783.087 442.617 827.397C460.546 873.203 464.317 926.779 436.736 986.889" stroke="white" stroke-width="1.5" stroke-linecap="round" stroke-linejoin="round"/>
<path d="M238.503 339.987C238.503 339.987 204.472 425.186 261.91 431.363C319.323 437.54 393.504 335.687 426.752 339.987" stroke="white" stroke-width="1.5" stroke-linecap="round" stroke-linejoin="round"/>
<defs>
<clipPath id="clip0_6_408">
<rect width="579.306" height="1020.4" fill="white" transform="translate(0.94519 1.79965)"/>
</clipPath>
</defs>
</svg>
