<svg width="36" height="34" viewBox="0 0 36 34" fill="none" xmlns="http://www.w3.org/2000/svg">
<g id="raphael:car" filter="url(#filter0_d_64_327)">
<path id="Vector" d="M30.5902 10.7798H28.3482C28.2243 10.7813 28.1055 10.8291 28.0152 10.9138C27.2992 9.77076 26.5582 8.85576 25.9832 8.28076C23.9832 6.28076 11.9832 6.28076 9.98316 8.28076C9.41016 8.85476 8.67316 9.76376 7.96116 10.8988C7.87538 10.8249 7.76636 10.7835 7.65316 10.7818H5.41016C5.13516 10.7818 4.91016 11.0078 4.91016 11.2818V12.2918C4.91016 12.5658 5.13016 12.8318 5.40016 12.8848L6.76016 13.1448C5.58616 15.7628 4.89416 19.0208 5.98216 22.2848V24.2218C5.98216 24.7748 6.12216 25.2218 6.29516 25.2218H8.85716C9.03016 25.2218 9.17016 24.7748 9.17016 24.2218V22.6378C11.4682 22.8578 14.7202 23.0978 17.9822 23.0978C21.2142 23.0978 24.5022 22.8618 26.7962 22.6438V24.2218C26.7962 24.7748 26.9362 25.2218 27.1082 25.2218H29.6702C29.8422 25.2218 29.9822 24.7748 29.9822 24.2218L29.9802 22.2838C31.0672 19.0238 30.3772 15.7678 29.2052 13.1498L30.5972 12.8848C30.733 12.8539 30.8548 12.7788 30.9435 12.6713C31.0321 12.5639 31.0827 12.43 31.0872 12.2908V11.2808C31.0874 11.2153 31.0748 11.1504 31.0499 11.0898C31.0251 11.0292 30.9885 10.9741 30.9424 10.9277C30.8962 10.8812 30.8413 10.8444 30.7809 10.8191C30.7205 10.7939 30.6556 10.7809 30.5902 10.7808V10.7798ZM9.10716 18.9068C8.637 18.8911 8.19133 18.6934 7.86427 18.3553C7.5372 18.0172 7.35436 17.5652 7.35436 17.0948C7.35436 16.6243 7.5372 16.1724 7.86427 15.8342C8.19133 15.4961 8.637 15.2984 9.10716 15.2828C9.5773 15.2985 10.0229 15.4964 10.3499 15.8346C10.6769 16.1728 10.8596 16.6248 10.8595 17.0952C10.8593 17.5657 10.6764 18.0176 10.3492 18.3556C10.022 18.6936 9.57731 18.8913 9.10716 18.9068ZM7.58316 13.7168C8.54316 11.5198 9.88016 9.79976 10.6902 8.98776C11.2742 8.40276 14.0302 7.78076 17.9822 7.78076C21.9352 7.78076 24.6902 8.40376 25.2752 8.98876C26.0852 9.79876 27.4212 11.5188 28.3812 13.7168C26.2492 13.9528 22.0962 13.4068 17.9832 13.4068C13.8702 13.4068 9.71716 13.9528 7.58316 13.7168ZM26.8572 18.9068C26.387 18.8911 25.9413 18.6934 25.6143 18.3553C25.2872 18.0172 25.1044 17.5652 25.1044 17.0948C25.1044 16.6243 25.2872 16.1724 25.6143 15.8342C25.9413 15.4961 26.387 15.2984 26.8572 15.2828C27.3273 15.2985 27.7729 15.4964 28.0999 15.8346C28.4269 16.1728 28.6096 16.6248 28.6095 17.0952C28.6093 17.5657 28.4264 18.0176 28.0992 18.3556C27.772 18.6936 27.3273 18.8913 26.8572 18.9068Z" fill="black"/>
</g>
<defs>
<filter id="filter0_d_64_327" x="-2" y="0" width="40" height="40" filterUnits="userSpaceOnUse" color-interpolation-filters="sRGB">
<feFlood flood-opacity="0" result="BackgroundImageFix"/>
<feColorMatrix in="SourceAlpha" type="matrix" values="0 0 0 0 0 0 0 0 0 0 0 0 0 0 0 0 0 0 127 0" result="hardAlpha"/>
<feOffset dy="4"/>
<feGaussianBlur stdDeviation="2"/>
<feComposite in2="hardAlpha" operator="out"/>
<feColorMatrix type="matrix" values="0 0 0 0 0 0 0 0 0 0 0 0 0 0 0 0 0 0 0.25 0"/>
<feBlend mode="normal" in2="BackgroundImageFix" result="effect1_dropShadow_64_327"/>
<feBlend mode="normal" in="SourceGraphic" in2="effect1_dropShadow_64_327" result="shape"/>
</filter>
</defs>
</svg>
