<svg width="24" height="25" viewBox="0 0 24 25" fill="none" xmlns="http://www.w3.org/2000/svg">
<path d="M3.9799 8.96867C3.05679 10.0599 2.35239 11.3421 1.93433 12.7476C3.22562 17.084 7.24308 20.2461 11.9991 20.2461C12.9916 20.2461 13.952 20.1084 14.8622 19.851M6.2276 6.97372C7.88385 5.88168 9.86768 5.24609 11.9999 5.24609C16.7559 5.24609 20.7734 8.40814 22.0647 12.7446C21.3528 15.138 19.8105 17.1738 17.772 18.5181M6.2276 6.97372L2.99997 3.74609M6.2276 6.97372L9.87865 10.6248M17.772 18.5181L21 21.7461M17.772 18.5181L14.1213 14.8674M14.1213 14.8674C14.6642 14.3245 15 13.5745 15 12.7461C15 11.0892 13.6568 9.74609 12 9.74609C11.1715 9.74609 10.4215 10.0819 9.87865 10.6248M14.1213 14.8674L9.87865 10.6248" stroke="#0F172A" stroke-width="1.5" stroke-linecap="round" stroke-linejoin="round"/>
</svg>
